HIERARCHY
ROOT Hips
{
	OFFSET -3.958830 18.904000 13.208200
	CHANNELS 6 Xposition Yposition Zposition Zrotation Yrotation Xrotation 
	JOINT LHipJoint
	{
		OFFSET 0.000000 0.000000 0.000000
		CHANNELS 3 Zrotation Yrotation Xrotation
		JOINT LeftUpLeg
		{
			OFFSET 1.800000 -1.400000 0.085000
			CHANNELS 3 Zrotation Yrotation Xrotation
			JOINT LeftLeg
			{
				OFFSET 2.215000 -6.000000 0.000000
				CHANNELS 3 Zrotation Yrotation Xrotation
				JOINT LeftFoot
				{
					OFFSET 2.500000 -6.900000 0.000000
					CHANNELS 3 Zrotation Yrotation Xrotation
					JOINT LeftToeBase
					{
						OFFSET 0.200000 -0.500000 1.950000
						CHANNELS 3 Zrotation Yrotation Xrotation
						End Site
						{
							OFFSET 0.000000 0.000000 0.000000
						}
					}
				}
			}
		}
	}
	JOINT RHipJoint
	{
		OFFSET 0.000000 0.000000 0.000000
		CHANNELS 3 Zrotation Yrotation Xrotation
		JOINT RightUpLeg
		{
			OFFSET -1.800000 -1.400000 0.085000
			CHANNELS 3 Zrotation Yrotation Xrotation
			JOINT RightLeg
			{
				OFFSET -2.215000 -6.000000 0.000000
				CHANNELS 3 Zrotation Yrotation Xrotation
				JOINT RightFoot
				{
					OFFSET -2.500000 -6.900000 0.000000
					CHANNELS 3 Zrotation Yrotation Xrotation
					JOINT RightToeBase
					{
						OFFSET -0.200000 -0.500000 1.950000
						CHANNELS 3 Zrotation Yrotation Xrotation
						End Site
						{
							OFFSET 0.000000 0.000000 0.000000
						}
					}
				}
			}
		}
	}
	JOINT LowerBack
	{
		OFFSET 0.000000 0.000000 0.000000
		CHANNELS 3 Zrotation Yrotation Xrotation
		JOINT Spine
		{
			OFFSET -0.087000 1.940000 -0.288900
			CHANNELS 3 Zrotation Yrotation Xrotation
			JOINT Spine1
			{
				OFFSET 0.000000 1.950000 0.060000
				CHANNELS 3 Zrotation Yrotation Xrotation
				JOINT Neck
				{
					OFFSET 0.000000 0.000000 0.000000
					CHANNELS 3 Zrotation Yrotation Xrotation
					JOINT Neck1
					{
						OFFSET 0.000000 1.600000 0.340000
						CHANNELS 3 Zrotation Yrotation Xrotation
						JOINT Head
						{
							OFFSET 0.000000 1.667000 -0.240000
							CHANNELS 3 Zrotation Yrotation Xrotation
							End Site
							{
								OFFSET 0.000000 0.000000 0.000000
							}
						}
					}
				}
				JOINT LeftShoulder
				{
					OFFSET 0.000000 0.000000 0.000000
					CHANNELS 3 Zrotation Yrotation Xrotation
					JOINT LeftArm
					{
						OFFSET 2.700000 1.550000 -0.730000
						CHANNELS 3 Zrotation Yrotation Xrotation
						JOINT LeftForeArm
						{
							OFFSET 5.450000 0.000000 0.000000
							CHANNELS 3 Zrotation Yrotation Xrotation
							JOINT LeftHand
							{
								OFFSET 3.450000 0.000000 0.000000
								CHANNELS 3 Zrotation Yrotation Xrotation
								JOINT LeftHandIndex1
								{
									OFFSET 0.750000 0.000000 0.000000
									CHANNELS 3 Zrotation Yrotation Xrotation
									End Site
									{
										OFFSET 0.000000 0.000000 0.000000
									}
								}
							}
						}
					}
				}
				JOINT RightShoulder
				{
					OFFSET 0.000000 0.000000 0.000000
					CHANNELS 3 Zrotation Yrotation Xrotation
					JOINT RightArm
					{
						OFFSET -2.700000 1.550000 -0.730000
						CHANNELS 3 Zrotation Yrotation Xrotation
						JOINT RightForeArm
						{
							OFFSET -5.450000 0.000000 0.000000
							CHANNELS 3 Zrotation Yrotation Xrotation
							JOINT RightHand
							{
								OFFSET -3.450000 0.000000 0.000000
								CHANNELS 3 Zrotation Yrotation Xrotation
								JOINT RightHandIndex1
								{
									OFFSET -0.750000 0.000000 0.000000
									CHANNELS 3 Zrotation Yrotation Xrotation
									End Site
									{
										OFFSET 0.000000 0.000000 0.000000
									}
								}
							}
						}
					}
				}
			}
		}
	}
}
MOTION
Frames: 12
Frame Time: 0.016667
-0.648200 16.980570 -4.286240 1.530777 -17.127817 -5.991326 -15.790851 12.849040 4.104835 -17.684998 -2.492879 3.469014 -13.414222 11.463684 33.517657 0.035482 9.091611 1.894664 -0.058370 -0.330760 -0.348900 18.084470 -7.931236 3.985306 8.123413 8.666689 -36.844906 20.232867 -13.964577 39.334366 -1.248230 -6.998968 1.979562 -0.025060 1.245450 0.671270 -2.452206 -5.750559 -8.735578 -4.415658 -4.662310 46.256820 2.599559 -6.910140 5.681579 -3.316488 -6.917118 -6.161577 -15.174805 7.467750 26.224383 -4.332840 1.986110 -31.105530 -2.063808 -2.063214 -1.722238 15.459953 -7.117081 -7.644785 88.616600 -23.875586 -24.851523 -4.555766 2.147253 1.114810 0.496840 0.097040 0.452290 9.191898 4.799672 2.842008 8.595737 -6.088926 -13.513799 -76.348469 47.901754 -33.610828 1.361955 -0.750467 -0.701940 0.999830 0.574610 0.064090 
-0.637560 16.839930 -4.305620 2.289113 -16.769540 -9.169516 -15.841976 12.908552 4.240558 -18.553234 -2.634305 5.643573 -12.617652 11.990707 36.273557 0.214546 9.675213 1.763299 -0.249690 -0.622300 -0.407790 18.034342 -7.897730 3.859401 7.572432 8.206546 -34.802610 21.054234 -14.847077 40.527131 -1.241629 -7.419325 1.887158 -0.175220 1.312930 0.599270 -2.294383 -5.992765 -8.831581 -6.422113 -2.601455 51.919719 4.736838 -5.842037 3.451860 -2.860483 -5.569137 -7.503021 -12.706597 6.751852 27.329083 -3.754600 2.426900 -24.465920 -1.272597 -4.187231 -0.737762 17.856229 -2.767663 -7.971779 86.917369 -21.638991 -21.932045 -4.649671 2.142495 1.109790 0.535960 -0.027410 0.385110 7.629607 6.393026 4.415068 8.239691 -10.904184 -13.886710 -72.207951 39.885087 -26.223158 1.538547 -0.981508 -0.807520 0.972530 0.649570 0.014600 
-0.620520 16.624840 -4.303520 3.920349 -13.706733 -11.472705 -15.835248 12.656236 4.457866 -20.348766 -3.830427 7.088028 -14.199731 13.523654 40.456801 0.371891 10.623879 1.460375 -0.235270 -0.636410 -0.375080 18.068648 -7.877735 3.775773 5.532767 7.699952 -36.027163 20.937509 -16.090758 44.181296 -1.390290 -8.187641 1.609547 -0.141200 1.288270 0.553920 -2.391060 -5.784174 -8.906810 -6.189073 -2.594070 57.907375 4.748459 -6.261791 -0.021289 -2.847399 -5.469555 -6.435643 -11.912907 4.676688 24.740422 -3.278110 0.380830 -26.493980 -1.008401 -1.880322 -1.783689 21.159081 -2.059719 -7.385857 85.014789 -18.909387 -18.567716 -4.636807 2.135269 1.176990 0.495900 -0.043990 0.369670 7.495018 3.747388 3.322663 7.353999 -15.460785 -14.231475 -82.648063 32.488799 -26.310419 1.714444 -1.210129 -0.881180 1.000330 0.649620 -0.026620 
-0.574780 16.467560 -4.210860 4.062295 -16.067286 -13.611378 -15.762184 12.388948 4.437844 -20.281370 -2.575711 9.406839 -17.293719 15.100622 38.897812 0.581719 10.842362 1.402854 -0.208300 -0.583490 -0.436450 18.167032 -7.876499 3.954645 6.410395 9.522860 -35.150210 20.335647 -16.687536 48.078470 -1.584379 -8.882896 1.437836 -0.156420 1.257740 0.575930 -2.661142 -5.149609 -9.000762 -3.412100 -2.332936 61.948381 2.505057 -4.927242 -2.256482 -2.159918 -6.349486 -6.405859 -13.029400 3.189584 24.066373 -1.548100 -1.657690 -26.148010 -3.363682 -2.958756 -2.283030 26.856897 -1.358846 -7.134669 81.465637 -16.402005 -14.972547 -4.574619 2.223040 1.137080 0.468950 -0.025790 0.413810 8.333779 5.639294 3.873870 4.615714 -24.637877 -14.441126 -87.233567 28.400587 -25.253798 1.821858 -1.354870 -0.796510 0.928990 0.610230 0.029210 
-0.559790 16.432180 -4.099730 3.374271 -17.914242 -13.497184 -15.828822 12.516753 4.330616 -18.386758 -2.422437 9.950187 -20.338803 16.137452 36.923077 0.759731 10.862786 1.384838 -0.197230 -0.565380 -0.449190 18.129152 -7.596019 4.116675 8.349517 10.969192 -35.236390 18.893963 -16.682547 50.956174 -1.722621 -9.191846 1.361905 -0.228770 1.157660 0.621740 -2.515024 -5.646136 -9.091724 -3.532589 -2.632815 63.249678 3.369108 -5.185816 -3.414003 -1.267615 -7.443791 -7.243788 -15.289690 4.932291 24.789132 -2.829590 -0.178700 -27.827970 -6.437992 -4.887250 -1.566713 27.335746 5.191829 -6.820269 83.122790 -15.179628 -13.829722 -4.510394 2.339061 1.140260 0.396940 0.048060 0.422380 9.802470 8.678910 4.947545 4.476151 -25.492551 -15.538850 -92.686490 27.879960 -28.422924 1.888002 -1.386228 -0.687920 0.807540 0.568210 0.057960 
-0.549070 16.471820 -3.947270 3.080236 -18.057159 -13.588272 -15.745816 12.481822 4.286552 -17.502928 -1.376457 11.883638 -20.415325 15.919470 34.979688 0.924393 10.657298 1.503124 -0.296800 -0.664990 -0.544790 18.189824 -7.744543 4.128906 8.006231 11.040495 -34.244741 18.974222 -17.223499 51.966916 -1.799876 -9.472985 1.317691 -0.371130 1.179500 0.692440 -2.723950 -5.289935 -9.081518 -1.131946 -4.595652 64.602046 1.092715 -6.201544 -4.958567 -0.030074 -7.326376 -8.453817 -15.193769 5.813149 25.318852 -5.387210 1.528850 -25.920940 -5.405465 -4.854583 -0.618281 20.305582 6.231518 -8.119312 90.362914 -16.128396 -17.244618 -4.464405 2.431672 1.082010 0.415210 0.073770 0.449380 6.514379 7.988271 5.732671 16.626519 -22.791091 -18.931961 -104.417463 29.367024 -39.422811 1.799505 -1.465481 -0.600660 0.713560 0.571980 0.127590 
-0.500840 16.583830 -3.743040 1.637349 -18.505724 -13.502007 -15.588062 12.404486 4.235489 -16.235190 0.219423 14.754365 -19.399562 14.943326 31.602068 0.939776 10.064602 1.702548 -0.259350 -0.583430 -0.566820 18.300230 -8.130015 4.051738 8.235607 10.421778 -31.754473 18.757337 -17.473800 51.517656 -1.786585 -9.484962 1.362501 -0.363870 1.123590 0.635000 -3.108972 -4.518779 -8.953960 3.370658 -7.917143 63.368309 -2.125361 -7.990861 -3.167332 0.683141 -7.471861 -9.729203 -15.450519 5.761471 25.747824 -4.871330 1.935430 -22.449180 -3.670883 -4.802436 0.597310 9.620969 4.853596 -10.091986 101.147115 -18.888685 -26.065489 -4.249170 2.565113 1.006100 0.386520 0.062750 0.504060 3.293684 7.288225 6.675625 25.098436 -17.041859 -19.315658 -111.311106 34.355524 -54.116251 1.748712 -1.485743 -0.549710 0.622000 0.456270 0.173220 
-0.492990 16.767210 -3.507280 0.186184 -19.712886 -13.056698 -15.459596 12.419170 4.181498 -15.055867 1.338605 16.621181 -17.115316 13.953842 29.751440 0.900134 9.810662 1.889685 -0.447200 -0.791680 -0.739540 18.388794 -8.493603 3.893611 9.684734 9.471072 -27.973074 16.822428 -16.517066 49.674607 -1.597180 -9.011624 1.572445 -0.461540 1.329870 0.593890 -3.419353 -3.997133 -8.720335 7.369216 -10.283029 61.784040 -4.109273 -9.292384 -1.199678 1.255847 -9.306209 -11.015373 -18.315272 5.727588 22.312026 -4.223750 0.977880 -18.822430 -1.760673 -2.566978 2.137819 -5.814182 1.023817 -10.485494 111.942858 -25.144621 -44.394619 -4.272212 2.392345 0.933330 0.479770 -0.062120 0.520340 0.549629 5.751303 7.329232 31.749747 -12.202166 -17.688728 -117.199754 44.712259 -76.835191 1.711783 -1.175093 -0.630340 0.736150 0.564720 0.232920 
-0.487620 16.987410 -3.285600 -1.771212 -19.146268 -10.388126 -15.347125 12.542548 3.964958 -13.084573 1.404574 15.820531 -13.451144 12.460327 29.538135 0.848592 9.345913 2.048442 -0.489140 -0.742540 -0.937440 18.467957 -8.756948 3.806516 11.280747 8.490862 -26.902531 14.260188 -15.179054 47.409823 -1.399722 -8.407815 1.809280 -0.459050 1.500820 0.668650 -3.689650 -3.774669 -8.404675 12.160452 -13.199162 56.581158 -5.881138 -11.116476 1.080642 1.566056 -11.070713 -11.241779 -21.499042 6.955471 18.157215 -3.027750 0.127050 -15.691280 0.017041 1.702800 3.763562 -25.022619 -8.475779 -6.869786 118.981298 -30.092282 -62.486305 -4.410032 2.406599 0.740710 0.611700 -0.132040 0.585430 -1.426799 1.317168 5.860771 35.815148 -4.650383 -12.474733 -123.996159 55.941961 -102.146506 1.785427 -1.118632 -0.525050 0.757210 0.637930 0.372010 
-0.556530 17.247590 -3.094260 -2.233503 -18.100325 -8.238412 -15.491841 13.257120 3.752828 -10.421246 0.906835 14.005854 -8.904387 11.168653 31.693979 0.631314 9.195854 2.086055 -0.588080 -0.923680 -0.894380 18.292206 -8.543950 3.743611 12.074803 7.853875 -26.467984 11.265538 -13.525378 45.761971 -1.179294 -7.684048 2.024981 -0.520470 1.505010 0.618050 -3.137339 -5.212165 -8.305416 10.644102 -11.816219 50.175374 -4.611152 -9.935451 6.565047 3.136938 -10.476291 -13.433855 -21.706661 7.331286 20.896029 -5.683390 1.905530 -12.570040 2.520468 -0.276148 6.725278 -38.618438 -11.862570 -5.107370 118.720036 -40.610030 -81.283903 -4.440632 2.194159 0.833370 0.622800 -0.163370 0.504130 -7.140775 3.787535 7.247010 47.595432 -0.459982 -12.130015 -118.041750 66.334274 -108.935020 1.959680 -0.355037 -0.644200 0.804060 0.713060 0.272040 
-0.616780 17.524150 -2.887950 -2.249642 -17.203819 -6.052887 -15.496983 13.696513 3.548193 -8.229942 0.550800 11.465437 -5.463064 10.094091 33.909547 0.553307 8.925048 2.106869 -0.523380 -0.886350 -0.815540 18.230989 -8.632075 3.710088 12.008501 7.445262 -26.511530 7.463258 -11.504406 44.469442 -1.027614 -6.965702 2.224107 -0.536700 1.393900 0.629820 -2.984441 -5.673676 -8.208841 11.751392 -11.292431 43.844994 -4.972743 -8.794943 7.852244 4.202935 -10.633419 -14.920887 -24.454204 8.100807 24.842222 -5.049490 1.694480 -9.750020 2.263410 -2.391113 8.375086 -49.142450 -13.396662 -4.338032 114.017848 -51.646938 -90.596288 -4.356976 2.034882 0.875650 0.558000 -0.104190 0.483240 -8.995061 6.507793 8.029420 53.864608 -0.644941 -21.479209 8.479691 88.690182 -0.489150 1.377026 -1.614947 -0.583890 0.722240 0.671540 0.240760 
-0.663660 17.817980 -2.700860 -1.298407 -15.926218 -4.658049 -15.458972 14.043022 3.413641 -6.747921 0.113090 8.666774 -2.874934 9.267979 36.561705 0.487420 8.830121 2.092038 -0.487330 -0.839730 -0.825280 18.202596 -8.852008 3.585144 11.119581 6.647277 -26.934862 2.400070 -9.097405 44.071619 -0.896416 -6.378020 2.394195 -0.522680 1.368000 0.614710 -2.950402 -5.899059 -8.071835 11.639046 -10.649370 39.951142 -4.049638 -7.974780 6.145061 3.775951 -11.354280 -15.606578 -28.580820 9.302446 26.456454 -1.470250 -0.606180 -9.513980 2.153680 -2.943477 8.800304 -59.153019 -14.726728 -5.189204 94.996128 -66.032208 -80.518224 -4.169533 0.726208 0.914070 0.502000 -0.070020 0.489040 -7.695747 7.836156 8.156030 56.968603 0.085352 -19.748621 29.325355 74.096928 14.128422 1.498307 -1.608922 -0.562080 0.737260 0.667770 0.257640 
